<?xml version="1.0" encoding="utf-8"?>
<!-- Generator: Adobe Illustrator 19.0.0, SVG Export Plug-In . SVG Version: 6.00 Build 0)  -->
<svg version="1.1" id="SDBLogo" xmlns="http://www.w3.org/2000/svg" xmlns:xlink="http://www.w3.org/1999/xlink" x="0px" y="0px"
	 viewBox="0 0 1000 498.7" style="enable-background:new 0 0 1000 498.7;" xml:space="preserve">
<g id="SDBLogoMain">
	<path id="XMLID_14_" d="M770.5,175.9c0-31.6-15.3-43.3-48.4-43.3h-24.2v87H717C753.7,219.6,770.5,207,770.5,175.9z"/>
	<path id="XMLID_15_" d="M488.1,208c-27.9,0-33.5,27.9-33.5,82.3s5.6,82.3,33.5,82.3c28.4,0,34-27.9,34-82.3S516.5,208,488.1,208z"
		/>
	<path id="XMLID_21_" d="M726.7,266.1h-28.8v100h26c32.1,0,54-11.6,54-50.2S756,266.1,726.7,266.1z"/>
	<path id="XMLID_5_" d="M936.8,0H68.4C32.2,0,0,28.3,0,67.8v356.9c0,39.4,32.2,74,68.4,74h868.5c36.2,0,63.2-34.6,63.2-74V272.6
		v-46.5V67.8C1000,28.3,973,0,936.8,0z M249.5,421.9c-75.8,0-105.6-35.3-105.6-96.7v-13.5h67v9.8c0,31.2,8.8,51.2,44.2,51.2
		c20.5,0,40-13,40-40.9c0-30.2-15.3-41.4-59.5-56.7c-59.5-20.5-87-45.1-87-100.5c0-64.7,39.5-97.7,102.8-97.7
		c59.5,0,102.8,25.6,102.8,89.3v9.3H290c0-31.2-10.7-49.3-36.3-49.3c-30.2,0-38.1,19.1-38.1,38.6c0,20.5,6,33,34.4,45.1l51.6,22.3
		c50.2,21.9,63.3,47.4,63.3,87.9C364.9,390.3,322.1,421.9,249.5,421.9z M586.3,415.4h-61.4v-26.5H524c-14,23.3-31.6,33-56.7,33
		c-52.6,0-76.7-38.6-76.7-131.6s24.2-131.6,76.7-131.6c24.2,0,40.5,9.8,54,29.8h0.9V83.3h64.2V415.4z M744,415.4h-113V83.3H743
		c54.9,0,94.4,20.5,94.4,84.2c0,35.8-17.2,63.3-50.2,72.6v0.9c36.7,5.1,60.5,33,60.5,77.2C847.7,370.3,822.1,415.4,744,415.4z
		 M979.3,272.6H907v-46.5h72.4V272.6z"/>
</g>
<g id="SDBLogoTypo">
	<path id="SDBLogoTypo-S_1_" d="M301.6,232.1L250,209.8c-28.4-12.1-34.4-24.7-34.4-45.1c0-19.5,7.9-38.6,38.1-38.6
		c25.6,0,36.3,18.1,36.3,49.3h64.2v-9.3c0-63.7-43.3-89.3-102.8-89.3c-63.3,0-102.8,33-102.8,97.7c0,55.3,27.4,80,87,100.5
		c44.2,15.3,59.5,26.5,59.5,56.7c0,27.9-19.5,40.9-40,40.9c-35.3,0-44.2-20-44.2-51.2v-9.8h-67v13.5c0,61.4,29.8,96.7,105.6,96.7
		c72.6,0,115.3-31.6,115.3-101.9C364.9,279.6,351.9,254,301.6,232.1z"/>
	<path id="SDBLogoTypo-d_1_" d="M522.1,188.4h-0.9c-13.5-20-29.8-29.8-54-29.8c-52.6,0-76.7,38.6-76.7,131.6s24.2,131.6,76.7,131.6
		c25.1,0,42.8-9.8,56.7-33h0.9v26.5h61.4V83.3h-64.2V188.4z M488.1,372.6c-27.9,0-33.5-27.9-33.5-82.3s5.6-82.3,33.5-82.3
		c28.4,0,34,27.9,34,82.3S516.5,372.6,488.1,372.6z"/>
	<path id="SDBLogoTypo-B_1_" d="M787.2,241v-0.9c33-9.3,50.2-36.7,50.2-72.6c0-63.7-39.5-84.2-94.4-84.2H630.9v332.1h113
		c78.1,0,103.7-45.1,103.7-97.2C847.7,274,824,246.1,787.2,241z M697.9,132.6h24.2c33,0,48.4,11.6,48.4,43.3
		c0,31.2-16.7,43.7-53.5,43.7h-19.1V132.6z M724,366.1h-26v-100h28.8c29.3,0,51.2,11.2,51.2,49.8S756,366.1,724,366.1z"/>
</g>
</svg>
